# xmcd
#
# Track frame offsets: 
#        180
#        14211
#        24889
#        38040
#        56399
#        72005
#        86246
#        99799
#        113166
#        127089
#        139588
#        153403
#        168122
#        180913
#        192526
#        206645
#        219480
#        234383
#        245771
#        262010
#
# Disc length: 3690 seconds
#
# Revision: 2
# Processed by: cddbd v1.5.2PL0 Copyright (c) Steve Scherf et al.
# Submitted via: ExactAudioCopy v0.95b4
#
DISCID=130e6814
DTITLE=Allerlei - Schlager Fuer Herzliche Stunden (1)
DYEAR=2006
DGENRE=A Cappella
TTITLE0=RENE CAROL - Rote Rosen, rote Lippen, roter Wein
TTITLE1=IRENE ZIEDEK - Traume kann man nicht verbieten
TTITLE2=HULA HAWAIIAN QUARTETT - Die Perle auf dem Meeresgrund (Suraya
TTITLE2=) 
TTITLE3=CATERINA VALENTE - Wenn es Nacht wird in Paris 
TTITLE4=WILLY HAGARA - Diesmal muß es Liebe sein
TTITLE5=VICO TORRIANI - Lied der Liebe (Bolischweller)
TTITLE6=MARGOT ESKENS - Mutti, du darfst doch nicht weinen
TTITLE7=VICO TORRIANI - Du schenkst mir eine Welt
TTITLE8=PETER ALEXANDER - Der Mond hält seine Wacht
TTITLE9=HEINZ ERHARDT - Bin Ich verliebt
TTITLE10=UDO JÜRGENS - Es waren weiße Chrysanthemen
TTITLE11=WILLY HAGARA - Ein Hausehen mit Garten
TTITLE12=DODDY DELISSEN - Es war so schon bei dir zu bleiben
TTITLE13=ZARAH LEANDER - Mein Leben - dein Leben
TTITLE14=BULLY BUHLAN - Ich hab' mich so an dich gewöhnt
TTITLE15=HILDE HILDEBRAND - Ich lebe für die Liebe
TTITLE16=WERNER SCHMAH, AMIGO-TANGO-ORCHESTER - Wenn Abends die Heide 
TTITLE16=traumt
TTITLE17=BULLY BUHLAN - Ich moecht' auf deiner Hochzeit tanzen
TTITLE18=FRED FROHBERG UND SINGENDE VIER - Einsam liegt mein Schiff im
TTITLE18=Hafen
TTITLE19=HANS ALBERS - Und über uns der Himmel
EXTD=Text Per OCR Uebertragen
EXTT0=
EXTT1=
EXTT2=
EXTT3=
EXTT4=
EXTT5=
EXTT6=
EXTT7=
EXTT8=
EXTT9=
EXTT10=
EXTT11=
EXTT12=
EXTT13=
EXTT14=
EXTT15=
EXTT16=
EXTT17=
EXTT18=
EXTT19=
PLAYORDER=
